<?xml version="1.0" encoding="utf-8"?>
<svg viewBox="147.4576 133 206.9206 210.4176" xmlns="http://www.w3.org/2000/svg">
  <g transform="matrix(0.1000000014901161, 0, 0, -0.1000000014901161, 0, 499.99999999999994)" fill="#000000" stroke="none">
    <path d="M2648 3623 c-16 -34 -22 -67 -23 -114 0 -78 9 -93 92 -139 29 -17 62 -45 73 -63 24 -39 26 -113 5 -165 -14 -32 -14 -35 -1 -22 33 33 86 135 86 164 -1 41 -17 61 -97 121 -99 73 -116 103 -111 193 2 39 2 72 1 72 -1 0 -12 -21 -25 -47z"/>
    <path d="M2496 3471 c-23 -52 -27 -74 -24 -117 5 -58 16 -73 93 -122 22 -14 45 -31 52 -38 17 -17 33 -60 33 -90 0 -23 -2 -24 -80 -24 l-80 0 0 -260 0 -260 43 0 c96 1 253 85 319 172 59 78 98 193 98 296 l0 52 -87 1 c-49 1 -110 1 -137 -1 -26 -1 -46 2 -44 6 41 85 49 108 43 133 -6 28 -48 74 -113 121 -46 34 -73 82 -81 143 l-6 52 -29 -64z"/>
    <path d="M1877 3053 c-7 -34 6 -151 23 -213 32 -118 145 -274 246 -337 24 -15 44 -31 44 -34 0 -3 -44 -11 -97 -18 -165 -21 -194 -38 -122 -73 60 -30 240 -41 534 -35 362 8 550 31 550 68 0 15 -72 32 -187 44 -38 4 -68 10 -68 14 0 3 28 27 61 51 34 24 74 59 89 78 27 32 27 33 71 21 58 -16 107 -6 159 32 113 82 99 251 -27 313 -40 20 -42 23 -43 69 l0 47 -50 0 -50 0 0 -63 c0 -132 -57 -271 -148 -364 -99 -100 -226 -153 -367 -153 -152 0 -258 43 -366 150 -101 99 -149 210 -152 349 l-1 81 -47 0 c-43 0 -47 -2 -52 -27z m1268 -155 c36 -28 57 -80 49 -122 -8 -47 -62 -96 -110 -102 -64 -8 -69 3 -34 77 16 36 36 88 42 117 7 29 16 52 19 52 3 0 19 -10 34 -22z"/>
    <path d="M1795 2381 c-18 -7 -17 -8 7 -13 19 -4 25 -1 21 9 -3 7 -6 13 -7 12 0 0 -10 -4 -21 -8z"/>
    <path d="M3133 2375 c0 -8 4 -12 8 -10 4 3 15 2 24 -1 12 -5 13 -9 5 -14 -8 -5 -8 -9 2 -13 26 -10 15 24 -12 38 -23 12 -27 12 -27 0z"/>
    <path d="M3098 2347 c-15 -10 -15 -12 4 -29 12 -10 25 -18 29 -18 17 0 39 13 39 23 0 7 -4 7 -12 -1 -7 -7 -19 -12 -27 -12 -13 1 -12 4 3 15 16 12 17 15 4 15 -9 0 -18 4 -20 9 -1 5 -11 4 -20 -2z"/>
    <path d="M1752 2338 c2 -6 10 -13 16 -14 7 -1 8 0 2 3 -5 2 -8 9 -4 14 3 5 0 9 -6 9 -7 0 -10 -5 -8 -12z"/>
    <path d="M1800 2340 c0 -5 7 -10 16 -10 8 0 12 5 9 10 -3 6 -10 10 -16 10 -5 0 -9 -4 -9 -10z"/>
    <path d="M1850 2334 c10 -11 10 -14 0 -14 -8 0 -11 -2 -8 -5 3 -3 15 -2 26 2 20 8 20 8 -4 20 -22 10 -24 10 -14 -3z"/>
    <path d="M1908 2313 c7 -3 16 -2 19 1 4 3 -2 6 -13 5 -11 0 -14 -3 -6 -6z"/>
    <path d="M2985 2304 c-25 -8 -29 -12 -12 -8 38 6 75 -5 56 -17 -12 -7 -11 -9 1 -9 8 0 21 4 28 9 10 6 6 10 -14 15 -22 6 -25 9 -13 17 20 12 1 10 -46 -7z"/>
    <path d="M1798 2303 c6 -2 18 -2 25 0 6 3 1 5 -13 5 -14 0 -19 -2 -12 -5z"/>
    <path d="M1885 2290 c3 -5 8 -10 11 -10 2 0 4 5 4 10 0 6 -5 10 -11 10 -5 0 -7 -4 -4 -10z"/>
    <path d="M1988 2293 c6 -2 18 -2 25 0 6 3 1 5 -13 5 -14 0 -19 -2 -12 -5z"/>
    <path d="M2045 2280 c27 -12 43 -12 25 0 -8 5 -22 9 -30 9 -10 0 -8 -3 5 -9z"/>
    <path d="M2885 2280 c-3 -5 -36 -11 -73 -11 l-67 -2 90 -8 c51 -4 105 -4 125 1 28 8 22 8 -25 4 -53 -5 -58 -4 -46 10 7 9 11 16 8 16 -3 0 -9 -4 -12 -10z"/>
    <path d="M1975 2260 c31 -8 112 -13 104 -6 -2 2 -33 6 -69 9 -41 3 -54 2 -35 -3z"/>
    <path d="M2168 2263 c7 -3 16 -2 19 1 4 3 -2 6 -13 5 -11 0 -14 -3 -6 -6z"/>
    <path d="M2205 2254 l-120 -12 114 5 c62 3 125 9 140 13 35 11 14 10 -134 -6z"/>
    <path d="M2625 2260 c17 -7 16 -9 -10 -10 l-30 -2 30 -8 c17 -4 39 -8 50 -8 16 0 15 2 -5 8 -19 6 -13 8 29 9 71 1 63 7 -19 14 -38 3 -57 1 -45 -3z"/>
    <path d="M2778 2243 c18 -2 45 -2 60 0 15 2 0 4 -33 4 -33 0 -45 -2 -27 -4z"/>
    <path d="M2233 2233 c15 -2 37 -2 50 0 12 2 0 4 -28 4 -27 0 -38 -2 -22 -4z"/>
    <path d="M2962 2084 c22 -22 30 -26 40 -16 15 15 2 28 -37 37 l-30 7 27 -28z"/>
    <path d="M3132 2083 c22 -21 30 -25 40 -15 15 15 3 27 -37 36 l-30 7 27 -28z"/>
    <path d="M2870 2070 c-20 -21 -30 -45 -35 -83 -4 -28 -12 -58 -17 -64 -7 -9 -7 -13 1 -13 9 0 11 -28 9 -100 l-3 -100 35 1 c19 0 29 3 23 6 -9 3 -13 33 -13 100 l0 96 30 -6 c16 -4 32 -2 35 3 4 6 -10 10 -31 10 l-37 0 5 65 c3 36 13 76 22 90 22 34 10 31 -24 -5z"/>
    <path d="M3036 2071 c-19 -21 -36 -74 -36 -114 0 -21 -6 -30 -22 -35 l-22 -5 22 -8 c20 -8 22 -15 22 -98 0 -62 -4 -91 -12 -94 -7 -3 7 -5 32 -5 25 0 39 2 33 5 -9 3 -13 33 -13 100 l0 96 30 -6 c17 -4 30 -2 30 3 0 6 -13 10 -30 10 -30 0 -30 0 -30 58 0 31 7 69 14 85 17 31 7 36 -18 8z"/>
    <path d="M2368 2063 c7 -3 16 -2 19 1 4 3 -2 6 -13 5 -11 0 -14 -3 -6 -6z"/>
    <path d="M1812 2053 c-14 -3 -28 -17 -37 -40 -17 -39 -19 -55 -6 -34 11 17 25 -131 20 -212 l-4 -57 31 0 30 0 -7 68 c-13 108 -11 256 3 270 12 12 10 13 -30 5z"/>
    <path d="M2415 2048 c11 -6 28 -20 37 -32 l18 -21 0 22 c0 23 -26 43 -57 43 -16 -1 -16 -2 2 -12z"/>
    <path d="M1488 2038 c19 -19 16 -277 -4 -306 -15 -21 -14 -22 17 -22 26 0 29 3 20 14 -8 9 -11 56 -9 142 l3 129 71 -140 71 -139 22 48 c24 56 26 67 7 41 -13 -18 -19 -8 -80 113 -64 128 -67 132 -98 132 -25 0 -29 -3 -20 -12z"/>
    <path d="M2246 2030 c-46 -29 -76 -87 -76 -143 0 -56 18 -95 59 -130 32 -27 98 -53 108 -43 4 3 -1 6 -10 6 -24 0 -78 50 -93 87 -17 40 -18 122 -2 160 6 15 23 40 37 56 29 32 19 35 -23 7z"/>
    <path d="M1736 1925 c-9 -26 -7 -32 5 -12 6 10 9 21 6 23 -2 3 -7 -2 -11 -11z"/>
    <path d="M1966 1818 l56 -112 13 29 c8 21 9 31 1 33 -13 4 -66 120 -66 145 0 12 -8 17 -30 17 l-30 0 56 -112z"/>
    <path d="M2068 1923 c6 -2 12 -17 13 -31 0 -16 3 -21 6 -12 3 8 12 23 21 33 14 16 13 17 -19 16 -19 0 -28 -3 -21 -6z"/>
    <path d="M2663 1919 c39 -23 59 -116 37 -173 -9 -24 -8 -25 10 -14 59 37 50 157 -15 186 -32 15 -57 15 -32 1z"/>
    <path d="M3253 1919 c10 -6 17 -22 17 -40 0 -26 3 -30 23 -27 46 6 12 78 -37 78 -19 -1 -19 -2 -3 -11z"/>
    <path d="M3485 1913 c10 -9 15 -26 12 -40 -3 -19 0 -23 19 -23 27 0 35 17 21 45 -12 25 -27 35 -50 35 -17 0 -17 -1 -2 -17z"/>
    <path d="M2562 1898 c-28 -31 -36 -70 -22 -112 13 -40 52 -76 82 -76 17 0 15 3 -8 24 -24 20 -28 32 -32 90 -3 44 0 71 8 81 20 24 -4 17 -28 -7z"/>
    <path d="M3171 1897 c-68 -73 -26 -187 70 -187 21 0 41 5 44 10 4 6 -8 10 -29 10 -43 0 -76 37 -76 86 0 31 2 33 43 37 l42 4 -42 1 c-44 2 -55 16 -31 40 6 6 9 14 7 17 -3 3 -15 -6 -28 -18z"/>
    <path d="M3389 1884 c-18 -19 -24 -37 -24 -71 0 -38 5 -49 33 -74 33 -30 82 -38 112 -19 11 7 6 10 -21 10 -62 0 -99 69 -78 144 11 39 7 41 -22 10z"/>
    <path d="M1706 1855 c-9 -26 -7 -32 5 -12 6 10 9 21 6 23 -2 3 -7 -2 -11 -11z"/>
    <path d="M2459 1763 c-8 -14 -27 -32 -44 -40 l-30 -14 35 7 c38 6 60 27 60 56 0 24 -4 23 -21 -9z"/>
    <path d="M1880 1591 c0 -20 28 -31 53 -22 41 16 38 26 -9 28 -24 1 -44 -2 -44 -6z"/>
  </g>
</svg>